solid
 facet normal 0 1 0
   outer loop
     vertex 370.379 33.0786 0
     vertex 10.1214 33.0786 0
     vertex 10.1214 33.0786 3
   endloop
 endfacet
 facet normal 0 1 -0
   outer loop
     vertex 370.379 33.0786 0
     vertex 10.1214 33.0786 3
     vertex 370.379 33.0786 3
   endloop
 endfacet
 facet normal -1 -3.99309e-17 0
   outer loop
     vertex 10.1214 33.0786 3
     vertex 10.1214 -100.379 0
     vertex 10.1214 -100.379 3
   endloop
 endfacet
 facet normal -1 -3.99309e-17 0
   outer loop
     vertex 10.1214 33.0786 0
     vertex 10.1214 -100.379 0
     vertex 10.1214 33.0786 3
   endloop
 endfacet
 facet normal 0 -1 0
   outer loop
     vertex 10.1214 -100.379 0
     vertex 370.379 -100.379 0
     vertex 370.379 -100.379 3
   endloop
 endfacet
 facet normal 0 -1 0
   outer loop
     vertex 10.1214 -100.379 0
     vertex 370.379 -100.379 3
     vertex 10.1214 -100.379 3
   endloop
 endfacet
 facet normal 1 -0 0
   outer loop
     vertex 370.379 -100.379 3
     vertex 370.379 33.0786 0
     vertex 370.379 33.0786 3
   endloop
 endfacet
 facet normal 1 0 0
   outer loop
     vertex 370.379 -100.379 0
     vertex 370.379 33.0786 0
     vertex 370.379 -100.379 3
   endloop
 endfacet
 facet normal -0 0 -1
   outer loop
     vertex 370.379 33.0786 0
     vertex 10.1214 -100.379 0
     vertex 10.1214 33.0786 0
   endloop
 endfacet
 facet normal 0 -0 -1
   outer loop
     vertex 370.379 33.0786 0
     vertex 370.379 -100.379 0
     vertex 10.1214 -100.379 0
   endloop
 endfacet
 facet normal 0 0 1
   outer loop
     vertex 370.379 33.0786 3
     vertex 10.1214 33.0786 3
     vertex 10.1214 -100.379 3
   endloop
 endfacet
 facet normal 0 0 1
   outer loop
     vertex 370.379 33.0786 3
     vertex 10.1214 -100.379 3
     vertex 370.379 -100.379 3
   endloop
 endfacet
endsolid
